<mxfile host="app.diagrams.net" modified="2024-07-04T09:58:51.074Z" agent="Mozilla/5.0 (Macintosh; Intel Mac OS X 10_15_7) AppleWebKit/605.1.15 (KHTML, like Gecko) Version/17.5 Safari/605.1.15" etag="uLnVk_kl4nBD62PYnluy" version="24.6.4" type="device">
  <diagram id="C5RBs43oDa-KdzZeNtuy" name="Page-1">
    <mxGraphModel dx="2074" dy="802" grid="1" gridSize="10" guides="1" tooltips="1" connect="1" arrows="1" fold="1" page="1" pageScale="1" pageWidth="827" pageHeight="1169" math="0" shadow="0">
      <root>
        <mxCell id="WIyWlLk6GJQsqaUBKTNV-0" />
        <mxCell id="WIyWlLk6GJQsqaUBKTNV-1" parent="WIyWlLk6GJQsqaUBKTNV-0" />
        <mxCell id="oUgJSJtJMU2l7d1ZB36g-10" style="edgeStyle=orthogonalEdgeStyle;rounded=0;orthogonalLoop=1;jettySize=auto;html=1;exitX=0.5;exitY=1;exitDx=0;exitDy=0;entryX=0.5;entryY=0;entryDx=0;entryDy=0;" edge="1" parent="WIyWlLk6GJQsqaUBKTNV-1" source="oUgJSJtJMU2l7d1ZB36g-0" target="oUgJSJtJMU2l7d1ZB36g-1">
          <mxGeometry relative="1" as="geometry" />
        </mxCell>
        <mxCell id="oUgJSJtJMU2l7d1ZB36g-0" value="" style="ellipse;whiteSpace=wrap;html=1;aspect=fixed;fillColor=#000000;" vertex="1" parent="WIyWlLk6GJQsqaUBKTNV-1">
          <mxGeometry x="399" y="40" width="40" height="40" as="geometry" />
        </mxCell>
        <mxCell id="oUgJSJtJMU2l7d1ZB36g-11" style="edgeStyle=orthogonalEdgeStyle;rounded=0;orthogonalLoop=1;jettySize=auto;html=1;exitX=0.5;exitY=1;exitDx=0;exitDy=0;entryX=0.5;entryY=0;entryDx=0;entryDy=0;" edge="1" parent="WIyWlLk6GJQsqaUBKTNV-1" source="oUgJSJtJMU2l7d1ZB36g-1" target="oUgJSJtJMU2l7d1ZB36g-2">
          <mxGeometry relative="1" as="geometry" />
        </mxCell>
        <mxCell id="oUgJSJtJMU2l7d1ZB36g-1" value="Select Product" style="rounded=1;whiteSpace=wrap;html=1;" vertex="1" parent="WIyWlLk6GJQsqaUBKTNV-1">
          <mxGeometry x="359" y="120" width="120" height="30" as="geometry" />
        </mxCell>
        <mxCell id="oUgJSJtJMU2l7d1ZB36g-12" style="edgeStyle=orthogonalEdgeStyle;rounded=0;orthogonalLoop=1;jettySize=auto;html=1;exitX=0.5;exitY=1;exitDx=0;exitDy=0;entryX=0.5;entryY=0;entryDx=0;entryDy=0;" edge="1" parent="WIyWlLk6GJQsqaUBKTNV-1" source="oUgJSJtJMU2l7d1ZB36g-2" target="oUgJSJtJMU2l7d1ZB36g-3">
          <mxGeometry relative="1" as="geometry" />
        </mxCell>
        <mxCell id="oUgJSJtJMU2l7d1ZB36g-2" value="Click Add to Cart" style="rounded=1;whiteSpace=wrap;html=1;" vertex="1" parent="WIyWlLk6GJQsqaUBKTNV-1">
          <mxGeometry x="359" y="180" width="120" height="30" as="geometry" />
        </mxCell>
        <mxCell id="oUgJSJtJMU2l7d1ZB36g-13" style="edgeStyle=orthogonalEdgeStyle;rounded=0;orthogonalLoop=1;jettySize=auto;html=1;exitX=0.5;exitY=1;exitDx=0;exitDy=0;" edge="1" parent="WIyWlLk6GJQsqaUBKTNV-1" source="oUgJSJtJMU2l7d1ZB36g-3" target="oUgJSJtJMU2l7d1ZB36g-4">
          <mxGeometry relative="1" as="geometry" />
        </mxCell>
        <mxCell id="oUgJSJtJMU2l7d1ZB36g-3" value="API GateWay" style="rounded=1;whiteSpace=wrap;html=1;" vertex="1" parent="WIyWlLk6GJQsqaUBKTNV-1">
          <mxGeometry x="359" y="240" width="120" height="30" as="geometry" />
        </mxCell>
        <mxCell id="oUgJSJtJMU2l7d1ZB36g-14" style="edgeStyle=orthogonalEdgeStyle;rounded=0;orthogonalLoop=1;jettySize=auto;html=1;exitX=0;exitY=0.5;exitDx=0;exitDy=0;entryX=0.5;entryY=0;entryDx=0;entryDy=0;" edge="1" parent="WIyWlLk6GJQsqaUBKTNV-1" source="oUgJSJtJMU2l7d1ZB36g-4" target="oUgJSJtJMU2l7d1ZB36g-6">
          <mxGeometry relative="1" as="geometry" />
        </mxCell>
        <mxCell id="oUgJSJtJMU2l7d1ZB36g-19" value="YES" style="edgeLabel;html=1;align=center;verticalAlign=middle;resizable=0;points=[];" vertex="1" connectable="0" parent="oUgJSJtJMU2l7d1ZB36g-14">
          <mxGeometry x="0.1233" y="2" relative="1" as="geometry">
            <mxPoint as="offset" />
          </mxGeometry>
        </mxCell>
        <mxCell id="oUgJSJtJMU2l7d1ZB36g-15" style="edgeStyle=orthogonalEdgeStyle;rounded=0;orthogonalLoop=1;jettySize=auto;html=1;exitX=1;exitY=0.5;exitDx=0;exitDy=0;" edge="1" parent="WIyWlLk6GJQsqaUBKTNV-1" source="oUgJSJtJMU2l7d1ZB36g-4" target="oUgJSJtJMU2l7d1ZB36g-5">
          <mxGeometry relative="1" as="geometry" />
        </mxCell>
        <mxCell id="oUgJSJtJMU2l7d1ZB36g-20" value="NO" style="edgeLabel;html=1;align=center;verticalAlign=middle;resizable=0;points=[];" vertex="1" connectable="0" parent="oUgJSJtJMU2l7d1ZB36g-15">
          <mxGeometry x="0.1598" y="2" relative="1" as="geometry">
            <mxPoint as="offset" />
          </mxGeometry>
        </mxCell>
        <mxCell id="oUgJSJtJMU2l7d1ZB36g-4" value="Product Available ?" style="rhombus;whiteSpace=wrap;html=1;" vertex="1" parent="WIyWlLk6GJQsqaUBKTNV-1">
          <mxGeometry x="358.25" y="320" width="121.5" height="110" as="geometry" />
        </mxCell>
        <mxCell id="oUgJSJtJMU2l7d1ZB36g-5" value="Show Error Message to User" style="rounded=1;whiteSpace=wrap;html=1;" vertex="1" parent="WIyWlLk6GJQsqaUBKTNV-1">
          <mxGeometry x="479" y="480" width="120" height="30" as="geometry" />
        </mxCell>
        <mxCell id="oUgJSJtJMU2l7d1ZB36g-16" style="edgeStyle=orthogonalEdgeStyle;rounded=0;orthogonalLoop=1;jettySize=auto;html=1;exitX=0.5;exitY=1;exitDx=0;exitDy=0;entryX=0.5;entryY=0;entryDx=0;entryDy=0;" edge="1" parent="WIyWlLk6GJQsqaUBKTNV-1" source="oUgJSJtJMU2l7d1ZB36g-6" target="oUgJSJtJMU2l7d1ZB36g-7">
          <mxGeometry relative="1" as="geometry" />
        </mxCell>
        <mxCell id="oUgJSJtJMU2l7d1ZB36g-6" value="Update Cart API" style="rounded=1;whiteSpace=wrap;html=1;" vertex="1" parent="WIyWlLk6GJQsqaUBKTNV-1">
          <mxGeometry x="239" y="480" width="120" height="30" as="geometry" />
        </mxCell>
        <mxCell id="oUgJSJtJMU2l7d1ZB36g-17" style="edgeStyle=orthogonalEdgeStyle;rounded=0;orthogonalLoop=1;jettySize=auto;html=1;exitX=0;exitY=0.5;exitDx=0;exitDy=0;entryX=0.5;entryY=0;entryDx=0;entryDy=0;" edge="1" parent="WIyWlLk6GJQsqaUBKTNV-1" source="oUgJSJtJMU2l7d1ZB36g-7" target="oUgJSJtJMU2l7d1ZB36g-8">
          <mxGeometry relative="1" as="geometry" />
        </mxCell>
        <mxCell id="oUgJSJtJMU2l7d1ZB36g-21" value="YES" style="edgeLabel;html=1;align=center;verticalAlign=middle;resizable=0;points=[];" vertex="1" connectable="0" parent="oUgJSJtJMU2l7d1ZB36g-17">
          <mxGeometry x="0.0063" relative="1" as="geometry">
            <mxPoint as="offset" />
          </mxGeometry>
        </mxCell>
        <mxCell id="oUgJSJtJMU2l7d1ZB36g-18" style="edgeStyle=orthogonalEdgeStyle;rounded=0;orthogonalLoop=1;jettySize=auto;html=1;exitX=1;exitY=0.5;exitDx=0;exitDy=0;" edge="1" parent="WIyWlLk6GJQsqaUBKTNV-1" source="oUgJSJtJMU2l7d1ZB36g-7" target="oUgJSJtJMU2l7d1ZB36g-9">
          <mxGeometry relative="1" as="geometry" />
        </mxCell>
        <mxCell id="oUgJSJtJMU2l7d1ZB36g-22" value="NO" style="edgeLabel;html=1;align=center;verticalAlign=middle;resizable=0;points=[];" vertex="1" connectable="0" parent="oUgJSJtJMU2l7d1ZB36g-18">
          <mxGeometry x="0.1544" y="1" relative="1" as="geometry">
            <mxPoint as="offset" />
          </mxGeometry>
        </mxCell>
        <mxCell id="oUgJSJtJMU2l7d1ZB36g-7" value="Cart Updated ?" style="rhombus;whiteSpace=wrap;html=1;" vertex="1" parent="WIyWlLk6GJQsqaUBKTNV-1">
          <mxGeometry x="353" y="560" width="121.5" height="110" as="geometry" />
        </mxCell>
        <mxCell id="oUgJSJtJMU2l7d1ZB36g-24" style="edgeStyle=orthogonalEdgeStyle;rounded=0;orthogonalLoop=1;jettySize=auto;html=1;exitX=0.5;exitY=1;exitDx=0;exitDy=0;entryX=0.5;entryY=0;entryDx=0;entryDy=0;" edge="1" parent="WIyWlLk6GJQsqaUBKTNV-1" source="oUgJSJtJMU2l7d1ZB36g-8" target="oUgJSJtJMU2l7d1ZB36g-23">
          <mxGeometry relative="1" as="geometry" />
        </mxCell>
        <mxCell id="oUgJSJtJMU2l7d1ZB36g-8" value="Show the Success Message" style="rounded=1;whiteSpace=wrap;html=1;" vertex="1" parent="WIyWlLk6GJQsqaUBKTNV-1">
          <mxGeometry x="239" y="720" width="120" height="30" as="geometry" />
        </mxCell>
        <mxCell id="oUgJSJtJMU2l7d1ZB36g-26" style="edgeStyle=orthogonalEdgeStyle;rounded=0;orthogonalLoop=1;jettySize=auto;html=1;exitX=0.5;exitY=1;exitDx=0;exitDy=0;entryX=0.5;entryY=0;entryDx=0;entryDy=0;" edge="1" parent="WIyWlLk6GJQsqaUBKTNV-1" source="oUgJSJtJMU2l7d1ZB36g-9" target="oUgJSJtJMU2l7d1ZB36g-23">
          <mxGeometry relative="1" as="geometry" />
        </mxCell>
        <mxCell id="oUgJSJtJMU2l7d1ZB36g-9" value="Show Error Message to User" style="rounded=1;whiteSpace=wrap;html=1;" vertex="1" parent="WIyWlLk6GJQsqaUBKTNV-1">
          <mxGeometry x="479.75" y="720" width="120" height="30" as="geometry" />
        </mxCell>
        <mxCell id="oUgJSJtJMU2l7d1ZB36g-23" value="" style="ellipse;whiteSpace=wrap;html=1;aspect=fixed;fillColor=#000000;" vertex="1" parent="WIyWlLk6GJQsqaUBKTNV-1">
          <mxGeometry x="399" y="810" width="40" height="40" as="geometry" />
        </mxCell>
      </root>
    </mxGraphModel>
  </diagram>
</mxfile>
